<?xml version="1.0" standalone="no"?>
<!DOCTYPE svg PUBLIC "-//W3C//DTD SVG 20010904//EN"
 "http://www.w3.org/TR/2001/REC-SVG-20010904/DTD/svg10.dtd">
<svg version="1.0" xmlns="http://www.w3.org/2000/svg"
 width="701.000000pt" height="701.000000pt" viewBox="0 0 701.000000 701.000000"
 preserveAspectRatio="xMidYMid meet">

<g transform="translate(0.000000,701.000000) scale(0.100000,-0.100000)"
fill="#000000" stroke="none">
<path d="M3805 6609 c-277 -36 -563 -141 -849 -311 -220 -132 -344 -235 -586
-489 -139 -145 -152 -163 -152 -196 0 -29 8 -44 46 -81 37 -37 52 -46 81 -46
32 0 48 13 187 155 172 174 242 233 408 344 130 87 390 220 495 253 144 45
273 51 553 26 240 -22 222 -12 392 -229 261 -336 348 -496 471 -865 211 -638
271 -1132 194 -1587 -24 -139 -69 -309 -166 -630 -50 -164 -91 -315 -91 -335
-1 -26 -6 -39 -18 -43 -9 -3 -27 -16 -39 -29 -39 -41 -31 -80 44 -215 66 -120
166 -325 179 -368 5 -17 3 -23 -8 -23 -61 0 -91 -51 -84 -143 5 -57 1 -48 -49
108 -65 203 -69 212 -107 232 -40 21 -123 3 -157 -33 -39 -42 -32 -87 48 -294
105 -273 136 -376 129 -428 -9 -67 -32 -101 -82 -123 -44 -20 -243 -63 -251
-55 -2 2 -56 258 -119 568 -102 499 -118 566 -140 588 l-24 25 -293 0 c-237 1
-310 4 -387 19 -201 38 -442 135 -615 247 -107 70 -237 204 -298 308 -89 150
-114 217 -273 728 -26 84 -56 162 -66 173 -40 42 -112 34 -139 -17 -8 -14 -13
-47 -12 -72 3 -115 76 -444 135 -610 160 -454 466 -774 878 -919 212 -74 432
-110 722 -119 178 -5 208 -8 212 -22 3 -9 26 -128 51 -266 56 -306 113 -565
164 -756 53 -195 167 -563 185 -597 8 -15 34 -46 59 -70 l44 -44 101 -8 c61
-6 113 -5 133 0 28 8 39 6 70 -16 66 -45 156 -56 250 -28 73 21 125 58 157
113 l27 46 1 320 c1 317 6 372 39 465 40 112 57 205 52 275 -8 100 -65 312
-142 526 -103 287 -99 310 84 473 411 365 628 709 725 1146 57 259 55 457 -9
967 -39 305 -68 452 -126 628 -163 492 -505 879 -997 1129 -215 108 -442 180
-652 206 -99 12 -286 11 -385 -1z m1130 -5744 c16 -75 20 -241 6 -215 -5 8
-21 80 -35 160 -15 80 -29 152 -32 160 -3 8 7 4 21 -10 17 -18 30 -47 40 -95z
m-385 -110 c0 -76 -13 -114 -23 -73 -9 31 -9 153 0 161 14 14 23 -20 23 -88z"/>
<path d="M1099 5580 c-158 -25 -341 -85 -459 -152 -184 -103 -363 -291 -385
-404 -15 -80 67 -151 133 -115 9 5 60 52 113 103 104 102 232 192 343 243 180
84 301 106 554 104 155 -1 186 1 208 15 55 36 53 104 -5 143 -76 51 -355 86
-502 63z"/>
<path d="M1738 5046 c-246 -84 -495 -286 -657 -532 -80 -120 -123 -217 -157
-352 -31 -124 -32 -182 0 -218 18 -21 32 -28 61 -28 49 0 81 37 114 129 128
361 371 637 719 816 113 59 139 79 148 114 9 34 -12 80 -42 94 -40 18 -83 13
-186 -23z"/>
<path d="M2419 4217 c-51 -12 -84 -49 -83 -95 0 -53 309 -920 339 -951 29 -29
84 -32 139 -6 50 24 71 70 57 123 -21 78 -330 895 -343 908 -22 22 -69 31
-109 21z"/>
</g>
</svg>
